<?xml version="1.0" encoding="utf-8"?>
<!-- Generator: Adobe Illustrator 25.0.1, SVG Export Plug-In . SVG Version: 6.00 Build 0)  -->
<svg version="1.1" id="Capa_1" xmlns="http://www.w3.org/2000/svg"
  xmlns:xlink="http://www.w3.org/1999/xlink" x="0px" y="0px"
  viewBox="0 0 58.0800018 63.7200012" style="enable-background:new 0 0 226.0800018 63.7200012;"
  xml:space="preserve">
  <rect width="58" height="63.72" fill="white" />
<style type="text/css">
	.st0{fill:#1D1D1B;}
	.st1{fill:#D20A11;}
</style>
<g>
	<g>
		<path class="st0" d="M26.956337,53.0285301c1.7649841,0,1.8279724-0.5849915,1.8279724-1.6819763
			c0-18.1069946,0.0120239-30.9690228,0.0120239-49.0690002c0-0.3110048-0.5200195-0.4309999-0.6400146-0.1170044
			c-1.8500061,6.0090022-4.0889893,10.4190063-6.2819824,15.4499817c-0.28302,0.4060059-0.559021,0.5160217-1.5490112,0.5320129
			c-6.3659983,0.04599-10.3210154-0.0840149-16.6610107-0.0159912c-0.8349915,0.0159912-1.697998,0.2079773-1.7149963,1.8150024
			v31.3249798c0.0169983,0.8280029,0.1329956,1.7619934,1.8190002,1.7619934H8.772315H26.956337z"/>
		<path class="st0" d="M54.7762527,18.1266155c-6.3110046-0.0559998-10.2990112,0.0620117-16.6610107,0.0160217
			c-0.9769897-0.0160217-1.2489929-0.1260071-1.5299988-0.5320129c-2.2050171-5.2139902-4.2969971-9.67099-6.2950134-15.4499817
			c-0.1170044-0.314026-0.6389771-0.1940004-0.6369934,0.1159973c0,18.0999756,0.0329895,30.9629803,0.0329895,49.0699768
			c0,1.0970154,0.0370178,1.6820068,1.7960205,1.6820068h18.196991h5.0069885c1.6990051,0,1.803009-0.9339905,1.803009-1.7619934
			V19.941618C56.4822464,18.3346233,55.6322403,18.1426373,54.7762527,18.1266155"/>
		<path class="st1" d="M26.9095535,40.0837364c0,1.7730103-0.2610168,3.3630066-0.8250122,4.7520142
			c-0.5390015,1.3919983-1.3190002,2.5669861-2.3280029,3.5209961c-1.0190125,0.9790039-2.2520142,1.6889954-3.7099915,2.1960144
			c-1.4440002,0.4709778-3.0690002,0.7189941-4.8590097,0.7189941c-3.7099915,0-6.6090088-0.9639893-8.6430054-2.9150085
			c-2.0599976-1.9389954-3.0960083-4.6940002-3.0960083-8.2730103V21.1487408h7.3910217v18.486021
			c0,0.8939819,0.0769958,1.7189941,0.1809998,2.4859924c0.118988,0.7720032,0.3500061,1.4410095,0.690979,2.0159912
			c0.3390198,0.5509949,0.7850037,0.9960022,1.3340149,1.303009c0.5379944,0.3309937,1.2489929,0.5039978,2.1419983,0.5039978
			c0.8089905,0,1.5150156-0.1730042,2.0480051-0.5039978c0.5509949-0.3070068,1.0029907-0.7520142,1.3460083-1.303009
			c0.3589783-0.5749817,0.5859985-1.243988,0.7349854-2.0159912c0.144989-0.7669983,0.2059937-1.5920105,0.2059937-2.4859924
			v-18.486021h7.3870239V40.0837364z"/>
		<polygon class="st1" points="44.8592606,50.7922325 37.6402359,28.9772625 37.6402359,50.7922325 31.3422318,50.7922325 
			31.3422318,21.1492596 41.3832474,21.1492596 48.6002579,42.9762535 48.6002579,21.1492596 54.9032364,21.1492596 
			54.9032364,50.7922325 		"/>
	</g>
</g>
</svg>